<svg width="71" height="112" viewBox="0 0 71 112" fill="none" xmlns="http://www.w3.org/2000/svg">
<path d="M2.43272 26.6776C2.51305 24.2676 4.48998 22.3555 6.90129 22.3555H63.8277C66.239 22.3555 68.216 24.2676 68.2963 26.6776L70.7222 99.4565C70.9468 106.193 65.5465 111.776 58.8061 111.776H11.9229C5.18247 111.776 -0.217799 106.193 0.00675816 99.4565L2.43272 26.6776Z" fill="#D5F6D5"/>
<path fill-rule="evenodd" clip-rule="evenodd" d="M63.8277 25.3362H6.90129C6.09752 25.3362 5.43855 25.9735 5.41177 26.7769L2.9858 99.5558C2.81739 104.608 6.86759 108.796 11.9229 108.796H58.8061C63.8614 108.796 67.9116 104.608 67.7432 99.5558L65.3172 26.7769C65.2905 25.9735 64.6315 25.3362 63.8277 25.3362ZM6.90129 22.3555C4.48998 22.3555 2.51305 24.2676 2.43272 26.6776L0.00675816 99.4565C-0.217799 106.193 5.18247 111.776 11.9229 111.776H58.8061C65.5465 111.776 70.9468 106.193 70.7222 99.4565L68.2963 26.6776C68.216 24.2676 66.239 22.3555 63.8277 22.3555H6.90129Z" fill="#2CD22C"/>
<path fill-rule="evenodd" clip-rule="evenodd" d="M68.1518 104.324L2.57642 104.324L2.57642 101.344L68.1518 101.344V104.324Z" fill="#2CD22C"/>
<path fill-rule="evenodd" clip-rule="evenodd" d="M35.3641 0C27.9562 0 21.9509 6.00527 21.9509 13.4131V35.7684H24.9317V14.0099C24.9317 8.24818 29.6025 3.57742 35.3642 3.57742C41.1259 3.57742 45.7966 8.24819 45.7966 14.0099V35.7684H48.7772V13.4131C48.7772 6.00527 42.772 0 35.3641 0Z" fill="#2CD22C"/>
<circle cx="47.2869" cy="35.7688" r="2.9807" fill="#2CD22C"/>
<circle cx="23.4414" cy="35.7688" r="2.9807" fill="#2CD22C"/>
<g filter="url(#filter0_d_132_2919)">
<path d="M44.3906 59.9375L32.0625 72.2656L27.5625 67.7188C27.3281 67.5312 26.9531 67.5312 26.7656 67.7188L25.4062 69.0781C25.2188 69.2656 25.2188 69.6406 25.4062 69.875L31.6875 76.1094C31.9219 76.3438 32.25 76.3438 32.4844 76.1094L46.5469 62.0469C46.7344 61.8594 46.7344 61.4844 46.5469 61.25L45.1875 59.9375C45 59.7031 44.625 59.7031 44.3906 59.9375Z" fill="#2CD22C"/>
</g>
<defs>
<filter id="filter0_d_132_2919" x="24.2188" y="59.7031" width="23.5156" height="18.6406" filterUnits="userSpaceOnUse" color-interpolation-filters="sRGB">
<feFlood flood-opacity="0" result="BackgroundImageFix"/>
<feColorMatrix in="SourceAlpha" type="matrix" values="0 0 0 0 0 0 0 0 0 0 0 0 0 0 0 0 0 0 127 0" result="hardAlpha"/>
<feOffset dy="1"/>
<feGaussianBlur stdDeviation="0.5"/>
<feComposite in2="hardAlpha" operator="out"/>
<feColorMatrix type="matrix" values="0 0 0 0 0.0419097 0 0 0 0 0.591667 0 0 0 0 0.0419097 0 0 0 0.6 0"/>
<feBlend mode="normal" in2="BackgroundImageFix" result="effect1_dropShadow_132_2919"/>
<feBlend mode="normal" in="SourceGraphic" in2="effect1_dropShadow_132_2919" result="shape"/>
</filter>
</defs>
</svg>
