<svg width="48" height="75" viewBox="0 0 48 75" fill="none" xmlns="http://www.w3.org/2000/svg">
<path d="M1.90331 17.9001C1.95721 16.283 3.2837 15 4.90165 15H43.0983C44.7163 15 46.0427 16.283 46.0966 17.9001L47.7244 66.7335C47.8751 71.2537 44.2516 75 39.7289 75H8.27109C3.74835 75 0.124856 71.2537 0.275531 66.7335L1.90331 17.9001Z" fill="#EE6300"/>
<path fill-rule="evenodd" clip-rule="evenodd" d="M43.0983 17H4.90165C4.36233 17 3.92017 17.4277 3.9022 17.9667L2.27442 66.8001C2.16141 70.1903 4.87903 73 8.27109 73H39.7289C43.1209 73 45.8385 70.1903 45.7255 66.8001L44.0978 17.9667C44.0798 17.4277 43.6376 17 43.0983 17ZM4.90165 15C3.2837 15 1.95721 16.283 1.90331 17.9001L0.275531 66.7335C0.124856 71.2537 3.74835 75 8.27109 75H39.7289C44.2516 75 47.8751 71.2537 47.7244 66.7335L46.0966 17.9001C46.0427 16.283 44.7163 15 43.0983 15H4.90165Z" fill="#AD4C07"/>
<path fill-rule="evenodd" clip-rule="evenodd" d="M46 70L2 70L2 68L46 68V70Z" fill="#AD4C07"/>
<path fill-rule="evenodd" clip-rule="evenodd" d="M24 0C19.0294 0 15 4.02944 15 9V24H17V9.40001C17 5.53401 20.134 2.4 24 2.4C27.866 2.4 31 5.53401 31 9.4V24H33V9C33 4.02944 28.9706 0 24 0Z" fill="#AD4C07"/>
<circle cx="32" cy="24" r="2" fill="#AD4C07"/>
<circle cx="16" cy="24" r="2" fill="#AD4C07"/>
</svg>
