<svg width="14" height="16" viewBox="0 0 14 16" fill="none" xmlns="http://www.w3.org/2000/svg">
<path d="M3.5 11.5H6.5C6.75 11.5 7 11.2812 7 11V8C7 7.75 6.75 7.5 6.5 7.5H3.5C3.21875 7.5 3 7.75 3 8V11C3 11.2812 3.21875 11.5 3.5 11.5ZM12.5 2H11V0.5C11 0.25 10.75 0 10.5 0H9.5C9.21875 0 9 0.25 9 0.5V2H5V0.5C5 0.25 4.75 0 4.5 0H3.5C3.21875 0 3 0.25 3 0.5V2H1.5C0.65625 2 0 2.6875 0 3.5V14.5C0 15.3438 0.65625 16 1.5 16H12.5C13.3125 16 14 15.3438 14 14.5V3.5C14 2.6875 13.3125 2 12.5 2ZM12.5 14.3125C12.5 14.4375 12.4062 14.5 12.3125 14.5H1.6875C1.5625 14.5 1.5 14.4375 1.5 14.3125V5H12.5V14.3125Z" fill="#B7B9C1"/>
</svg>
