<svg width="93" height="19" viewBox="0 0 93 19" fill="none" xmlns="http://www.w3.org/2000/svg">
<path d="M2.29134 2.84805H0.67395V0.716797H7.75004C13.074 0.716797 16.5783 3.94805 16.5783 9.58555C16.5783 15.223 13.074 18.523 7.75004 18.523H3.84134C2.76308 18.523 2.29134 18.0418 2.29134 16.9418V2.84805ZM5.32395 16.323H7.61526C11.524 16.323 14.0174 13.9855 14.0174 9.58555C14.0174 5.2543 11.4566 2.9168 7.61526 2.9168H4.71743V15.8418C4.71743 16.1168 4.9196 16.323 5.32395 16.323Z" fill="white"/>
<path d="M19.6109 8.34805C19.6109 8.0043 19.4087 7.79805 19.0717 7.79805H18.0609V5.73555H20.4195C21.4978 5.73555 21.9695 6.2168 21.9695 7.3168V15.773C21.9695 16.1168 22.1717 16.323 22.5087 16.323H23.5195V18.3855H21.1609C20.0826 18.3855 19.6109 17.9043 19.6109 16.8043V8.34805ZM19.6782 0.716797H21.8348V3.26055H19.6782V0.716797Z" fill="white"/>
<path d="M25.5413 8.34844C25.4065 7.93594 25.2044 7.86719 24.8 7.86719H24.5305V5.80469H25.7435C26.8218 5.80469 27.2935 6.07969 27.6305 7.11094L30.3261 14.4672C30.5957 15.1547 30.7978 16.1172 30.7978 16.1172H30.8652C30.8652 16.1172 31.0674 15.1547 31.337 14.4672L34.0326 7.11094C34.3696 6.07969 34.8413 5.80469 35.9196 5.80469H37.0652V7.86719H36.7957C36.3913 7.86719 36.1218 8.00469 35.987 8.34844L32.2131 18.5234H29.45L25.5413 8.34844Z" fill="white"/>
<path d="M45.7588 10.5484H46.2979V10.4109C46.2979 8.14219 45.4892 7.38594 43.5348 7.38594C42.9283 7.38594 41.5131 7.52344 41.5131 8.34844V9.10469H39.2892V7.86719C39.2892 5.80469 42.3892 5.46094 43.6022 5.46094C47.6457 5.46094 48.724 7.66094 48.724 10.4797V15.9109C48.724 16.2547 48.9262 16.4609 49.2631 16.4609H50.274V18.5234H48.0501C46.9718 18.5234 46.5001 17.9734 46.5001 17.0797C46.5001 16.6672 46.5675 16.3234 46.5675 16.3234H46.5001C46.5001 16.3234 45.4892 18.8672 42.524 18.8672C40.3675 18.8672 38.2783 17.5609 38.2783 15.0172C38.2109 10.8234 43.6696 10.5484 45.7588 10.5484ZM42.9957 16.8047C45.0175 16.8047 46.2979 14.6047 46.2979 12.7484V12.3359H45.6914C43.8718 12.3359 40.637 12.4047 40.637 14.8109C40.637 15.8422 41.3783 16.8047 42.9957 16.8047Z" fill="white"/>
<path d="M52.6326 14.8801C52.6326 14.8801 54.1152 16.7363 56.4065 16.7363C57.5522 16.7363 58.563 16.1863 58.563 15.0863C58.563 12.8176 51.7565 13.0238 51.7565 8.96758C51.7565 6.49258 53.8456 5.39258 56.4065 5.39258C57.8891 5.39258 60.5174 5.94258 60.5174 7.86758V9.10508H58.3609V8.48633C58.3609 7.73008 57.2826 7.38633 56.4739 7.38633C55.0587 7.38633 54.1826 7.86758 54.1826 8.89883C54.1826 11.3051 60.9891 10.7551 60.9891 15.0176C60.9891 17.2863 59.0348 18.7301 56.4065 18.7301C53.1043 18.7301 51.4196 16.4613 51.4196 16.4613L52.6326 14.8801Z" fill="white"/>
<path d="M69.5479 5.46094C73.2544 5.46094 76.287 8.27969 76.287 12.1297C76.287 15.9797 73.2544 18.7984 69.5479 18.7984C65.8414 18.7984 62.8088 15.9797 62.8088 12.1297C62.8088 8.21094 65.8414 5.46094 69.5479 5.46094ZM69.5479 16.6672C71.9066 16.6672 73.8609 14.7422 73.8609 12.0609C73.8609 9.44844 71.9066 7.52344 69.5479 7.52344C67.1892 7.52344 65.3023 9.37969 65.3023 12.0609C65.3023 14.7422 67.1892 16.6672 69.5479 16.6672Z" fill="white"/>
<path d="M79.2522 7.73008H77.7022V5.73633H79.2522V5.32383C79.2522 1.13008 82.4196 0.580078 83.9696 0.580078C84.5087 0.580078 84.9131 0.648828 84.9131 0.648828V2.71133C84.9131 2.71133 84.6435 2.64258 84.3065 2.64258C83.3631 2.64258 81.6783 2.91758 81.6783 5.32383V5.66758H84.6435V7.66133H81.6783V18.4551H79.2522V7.73008Z" fill="white"/>
<path d="M87.4065 7.73047H85.7891V5.73672H87.4739V2.23047H89.8326V5.73672H92.7978V7.73047H89.8326V13.5742C89.8326 16.118 91.5848 16.4617 92.4609 16.4617C92.7978 16.4617 93 16.393 93 16.393V18.593C93 18.593 92.663 18.6617 92.1913 18.6617C90.6413 18.6617 87.4065 18.1805 87.4065 13.918V7.73047Z" fill="white"/>
<path d="M70.4239 0.511719H73.4565L70.8957 3.94922H68.6044L70.4239 0.511719Z" fill="#ABBF58"/>
</svg>
