<svg xmlns="http://www.w3.org/2000/svg">
    <symbol id="main" viewBox="0 0 26 21">
        <path d="M4.79688 18.6387L3.66406 7.38867H13.625C13.9375 7.38867 14.25 7.11523 14.25 6.76367V6.13867C14.25 5.82617 13.9375 5.51367 13.625 5.51367H8.54688L9.32812 2.38867H11.125C11.4375 2.38867 11.75 2.11523 11.75 1.76367V1.13867C11.75 0.826172 11.4375 0.513672 11.125 0.513672H9.09375C8.42969 0.513672 7.72656 1.06055 7.57031 1.72461L6.63281 5.51367H1.125C0.773438 5.51367 0.5 5.82617 0.5 6.13867V6.76367C0.5 7.11523 0.773438 7.38867 1.125 7.38867H1.78906L3 19.3809C3.03906 20.0059 3.58594 20.5137 4.21094 20.5137H4.25H10.5C10.5781 20.5137 10.7734 20.5137 10.8906 20.4746C10.4609 20.0449 9.95312 19.2246 9.79688 18.6387H4.79688ZM21.125 12.7012C21.4375 12.7012 21.75 12.4277 21.75 12.0762C21.75 11.7637 21.4375 11.4512 21.125 11.4512C20.7734 11.4512 20.5 11.7637 20.5 12.0762C20.5 12.4277 20.7734 12.7012 21.125 12.7012ZM18 12.0762C18.3125 12.0762 18.625 11.8027 18.625 11.4512C18.625 11.1387 18.3125 10.8262 18 10.8262C17.6484 10.8262 17.375 11.1387 17.375 11.4512C17.375 11.8027 17.6484 12.0762 18 12.0762ZM25.5 15.2012C25.5 14.7324 25.2266 14.3027 24.875 13.9902C25.0312 13.6777 25.1484 13.0918 25.1484 12.7012C25.1484 12.2324 24.9531 11.4902 24.6406 11.0996C23.3516 9.22461 20.7344 8.05273 18 8.01367C15.2266 8.05273 12.6094 9.22461 11.3203 11.0996C11.0078 11.4902 10.8125 12.2324 10.8125 12.7012C10.8125 13.0918 10.9297 13.6777 11.125 13.9902C10.7344 14.3027 10.5 14.7324 10.5 15.2012C10.5 15.5918 10.6953 16.0996 10.9688 16.334C10.8906 16.6074 10.8125 16.998 10.8125 17.2324C10.8125 19.0684 12.2578 20.5137 14.0938 20.5137H21.9062C23.7031 20.5137 25.1484 19.0684 25.1875 17.2324C25.1875 16.998 25.0703 16.6074 24.9922 16.334C25.2656 16.0996 25.4609 15.5918 25.5 15.2012ZM12.8438 12.1934C13.7422 10.9043 15.6953 9.92773 18 9.88867C20.2656 9.88867 22.2188 10.9043 23.1172 12.1934C23.1953 12.3105 23.2734 12.5449 23.2734 12.7012C23.2734 13.248 22.8828 13.6387 22.3359 13.6387H13.625C13.0781 13.6387 12.6875 13.248 12.6875 12.7012C12.6875 12.5449 12.7656 12.3105 12.8438 12.1934ZM21.9062 18.6387H14.0938C13.3125 18.6387 12.6875 18.0137 12.6875 17.2324C12.6875 16.998 12.8828 16.7637 13.1562 16.7637H22.8438C23.0781 16.7637 23.3125 16.998 23.3125 17.2324C23.3125 18.0137 22.6484 18.6387 21.9062 18.6387ZM14.875 12.7012C15.1875 12.7012 15.5 12.4277 15.5 12.0762C15.5 11.7637 15.1875 11.4512 14.875 11.4512C14.5234 11.4512 14.25 11.7637 14.25 12.0762C14.25 12.4277 14.5234 12.7012 14.875 12.7012Z" fill="currentColor"/>
    </symbol>
    <symbol id="profile" viewBox="0 0 19 21">
        <path d="M9.5 11.7637C12.2344 11.7637 14.5 9.53711 14.5 6.76367V0.513672L12 1.76367L9.5 0.513672L7 1.76367L4.5 0.513672V6.76367C4.5 9.53711 6.72656 11.7637 9.5 11.7637ZM6.375 5.51367H12.625V6.76367C12.625 8.52148 11.2188 9.88867 9.5 9.88867C7.74219 9.88867 6.375 8.52148 6.375 6.76367V5.51367ZM12.9766 12.3887C12.5469 12.3887 12.1172 12.5059 11.7266 12.6621C11.0234 12.8965 10.2812 13.0137 9.5 13.0137C8.67969 13.0137 7.9375 12.8965 7.23438 12.6621C6.84375 12.5059 6.41406 12.3887 5.98438 12.3887C3.09375 12.3887 0.75 14.7715 0.75 17.6621V18.6387C0.75 19.6934 1.57031 20.5137 2.625 20.5137H16.375C17.3906 20.5137 18.25 19.6934 18.25 18.6387V17.6621C18.25 14.7715 15.8672 12.3887 12.9766 12.3887ZM16.375 18.6387H2.625V17.6621C2.625 15.7871 4.10938 14.2637 5.98438 14.2637C6.14062 14.2637 6.33594 14.3418 6.60938 14.4199C7.54688 14.7324 8.52344 14.8887 9.5 14.8887C10.4375 14.8887 11.4141 14.7324 12.3516 14.4199C12.625 14.3418 12.8203 14.2637 12.9766 14.2637C14.8516 14.2637 16.375 15.7871 16.375 17.6621V18.6387Z" fill="currentColor"/>
    </symbol>
    <symbol id="phone" viewBox="0 0 25 25">
        <path d="M17.0321 22.8903C17.1967 22.9099 17.3985 22.8506 17.5213 22.7539C17.6134 22.6815 17.712 22.5542 17.7493 22.4752L18.7546 19.6466C18.8291 19.4886 18.7829 19.177 18.6621 19.0235C18.6138 18.9621 18.5107 18.8942 18.4624 18.8328L15.4929 17.143C15.2866 17.0071 14.9751 17.0533 14.7602 17.2224L14.7295 17.2465L13.131 18.7525C11.1096 17.5097 9.56389 15.5449 8.80782 13.257L10.6479 12.058L10.6786 12.0339C10.8935 11.8648 11.0118 11.5729 10.9283 11.3404L9.98512 8.0566C9.93681 7.99519 9.89506 7.87894 9.84676 7.81754C9.726 7.66403 9.43413 7.54573 9.26302 7.58093L6.27721 7.89204C5.9657 7.93829 5.74424 8.16221 5.70494 8.49133C4.82933 15.5915 9.92535 22.0695 17.0321 22.8903ZM11.7109 6.64925C11.4191 6.53094 11.1186 6.71761 11.0552 7.01603L11.0159 7.34514C10.9897 7.56456 11.1039 7.77292 11.3167 7.85397C11.4506 7.89777 11.6504 8.08853 11.7711 8.24203C11.8677 8.36484 12.0061 8.6039 12.0171 8.74431C12.0458 8.97027 12.2214 9.13033 12.4408 9.15652L12.7699 9.19582C13.0749 9.20442 13.3271 8.95635 13.2808 8.64484C13.1355 7.76514 12.5317 6.99761 11.7109 6.64925ZM12.307 1.65762C12.0392 1.57002 11.7936 1.76323 11.7609 2.0375L11.6974 2.33591C11.6954 2.58603 11.8337 2.82509 12.0773 2.88199C15.0373 3.48578 17.1385 6.1568 17.0284 9.17577C17.0264 9.42588 17.2261 9.61664 17.4697 9.67354L17.7747 9.68213C18.0489 9.71488 18.2945 9.52167 18.2724 9.24085C18.4304 5.5878 15.8945 2.36416 12.307 1.65762ZM11.9815 4.15016C11.7138 4.06256 11.444 4.22507 11.4113 4.49933L11.372 4.82845C11.3151 5.07202 11.4842 5.28693 11.697 5.36798C13.3471 5.75973 14.5306 7.26409 14.5228 8.96004C14.5514 9.186 14.7205 9.40091 14.9706 9.40295L15.2997 9.44225C15.574 9.475 15.7954 9.25109 15.7733 8.97027C15.7983 6.66439 14.1978 4.69296 11.9815 4.15016Z" fill="currentColor"/>
    </symbol>
    <symbol id="cart" viewBox="0 0 19 21">
        <path d="M14.5 5.51367C14.5 2.7793 12.2344 0.513672 9.5 0.513672C6.72656 0.513672 4.5 2.7793 4.5 5.51367H0.75V17.3887C0.75 19.1465 2.11719 20.5137 3.875 20.5137H15.125C16.8438 20.5137 18.25 19.1465 18.25 17.3887V5.51367H14.5ZM9.5 2.38867C11.2188 2.38867 12.625 3.79492 12.625 5.51367H6.375C6.375 3.79492 7.74219 2.38867 9.5 2.38867ZM16.375 17.3887C16.375 18.0918 15.7891 18.6387 15.125 18.6387H3.875C3.17188 18.6387 2.625 18.0918 2.625 17.3887V7.38867H4.5V8.95117C4.5 9.49805 4.89062 9.88867 5.4375 9.88867C5.94531 9.88867 6.375 9.49805 6.375 8.95117V7.38867H12.625V8.95117C12.625 9.49805 13.0156 9.88867 13.5625 9.88867C14.0703 9.88867 14.5 9.49805 14.5 8.95117V7.38867H16.375V17.3887Z" fill="currentColor"/>
    </symbol>
    <symbol id="leaf" viewBox="0 0 20 19">
        <path d="M14.5017 1.19911C14.2455 0.936501 13.8204 1.04364 13.738 1.41446C13.3801 3.07898 12.2222 4.39632 10.5813 4.92073L8.49767 5.58665C5.7368 6.46899 4.21271 9.42481 5.09505 12.1857C5.15332 12.368 5.21159 12.5503 5.2959 12.7243C6.57994 10.9935 8.65153 9.21187 12.0636 8.12143C12.2719 8.05484 12.5469 8.19661 12.6135 8.40498C12.6884 8.63939 12.5383 8.88831 12.3299 8.9549C5.76634 11.0525 4.29569 15.972 4.14505 17.6564C4.10424 18.1575 4.46244 18.5597 4.93744 18.6088C5.43849 18.6496 5.84072 18.2914 5.88986 17.8164C5.90866 17.6956 6.03727 16.3914 7.00769 14.8469C8.23346 15.7183 10.1719 16.3044 12.2067 15.3958C16.2043 13.8024 17.9217 9.20596 16.49 4.72605C16.0738 3.42375 15.3545 2.16093 14.5017 1.19911Z" fill="#2CD22C"/>
    </symbol>
    <symbol id="delete" viewBox="0 0 14 16">
        <path d="M8.375 13H9.125C9.3125 13 9.5 12.8438 9.5 12.625V5.875C9.5 5.6875 9.3125 5.5 9.125 5.5H8.375C8.15625 5.5 8 5.6875 8 5.875V12.625C8 12.8438 8.15625 13 8.375 13ZM13.5 2.5H10.9062L9.84375 0.75C9.59375 0.34375 9.03125 0 8.5625 0H5.40625C4.9375 0 4.375 0.34375 4.125 0.75L3.0625 2.5H0.5C0.21875 2.5 0 2.75 0 3V3.5C0 3.78125 0.21875 4 0.5 4H1V14.5C1 15.3438 1.65625 16 2.5 16H11.5C12.3125 16 13 15.3438 13 14.5V4H13.5C13.75 4 14 3.78125 14 3.5V3C14 2.75 13.75 2.5 13.5 2.5ZM5.34375 1.59375C5.375 1.5625 5.46875 1.5 5.5 1.5H5.53125H8.46875C8.5 1.5 8.59375 1.5625 8.625 1.59375L9.15625 2.5H4.8125L5.34375 1.59375ZM11.5 14.5H2.5V4H11.5V14.5ZM4.875 13H5.625C5.8125 13 6 12.8438 6 12.625V5.875C6 5.6875 5.8125 5.5 5.625 5.5H4.875C4.65625 5.5 4.5 5.6875 4.5 5.875V12.625C4.5 12.8438 4.65625 13 4.875 13Z" fill="currentColor"/>
    </symbol>
    <symbol id="check" viewBox="0 0 12 9">
        <path d="M10.1953 0.46875L4.03125 6.63281L1.78125 4.35938C1.66406 4.26562 1.47656 4.26562 1.38281 4.35938L0.703125 5.03906C0.609375 5.13281 0.609375 5.32031 0.703125 5.4375L3.84375 8.55469C3.96094 8.67188 4.125 8.67188 4.24219 8.55469L11.2734 1.52344C11.3672 1.42969 11.3672 1.24219 11.2734 1.125L10.5938 0.46875C10.5 0.351562 10.3125 0.351562 10.1953 0.46875Z" fill="currentColor"/>
    </symbol>
    <symbol id="user" viewBox="0 0 21 24">
        <path d="M10.5 13.5C13.7812 13.5 16.5 10.8281 16.5 7.5V0L13.5 1.5L10.5 0L7.5 1.5L4.5 0V7.5C4.5 10.8281 7.17188 13.5 10.5 13.5ZM6.75 6H14.25V7.5C14.25 9.60938 12.5625 11.25 10.5 11.25C8.39062 11.25 6.75 9.60938 6.75 7.5V6ZM14.6719 14.25C14.1562 14.25 13.6406 14.3906 13.1719 14.5781C12.3281 14.8594 11.4375 15 10.5 15C9.51562 15 8.625 14.8594 7.78125 14.5781C7.3125 14.3906 6.79688 14.25 6.28125 14.25C2.8125 14.25 0 17.1094 0 20.5781V21.75C0 23.0156 0.984375 24 2.25 24H18.75C19.9688 24 21 23.0156 21 21.75V20.5781C21 17.1094 18.1406 14.25 14.6719 14.25ZM18.75 21.75H2.25V20.5781C2.25 18.3281 4.03125 16.5 6.28125 16.5C6.46875 16.5 6.70312 16.5938 7.03125 16.6875C8.15625 17.0625 9.32812 17.25 10.5 17.25C11.625 17.25 12.7969 17.0625 13.9219 16.6875C14.25 16.5938 14.4844 16.5 14.6719 16.5C16.9219 16.5 18.75 18.3281 18.75 20.5781V21.75Z" fill="currentColor"/>
    </symbol>
</svg>
