<svg width="112" height="19" viewBox="0 0 112 19" fill="none" xmlns="http://www.w3.org/2000/svg">
<path d="M6.06407 18.7418C5.89056 18.7418 5.74308 18.6816 5.62162 18.5611C5.50017 18.4407 5.43944 18.2944 5.43944 18.1223V3.84647H0.624625C0.451118 3.84647 0.303637 3.78623 0.182182 3.66576C0.0607274 3.54529 0 3.399 0 3.2269V1.31658C0 1.12726 0.0607274 0.972373 0.182182 0.851902C0.303637 0.731431 0.451118 0.671195 0.624625 0.671195H13.8979C14.0888 0.671195 14.2449 0.731431 14.3664 0.851902C14.4878 0.972373 14.5486 1.12726 14.5486 1.31658V3.2269C14.5486 3.399 14.4878 3.54529 14.3664 3.66576C14.2449 3.78623 14.0888 3.84647 13.8979 3.84647H9.10911V18.1223C9.10911 18.2944 9.04839 18.4407 8.92693 18.5611C8.80548 18.6816 8.64932 18.7418 8.45846 18.7418H6.06407Z" fill="#EE6300"/>
<path d="M15.7734 18.7418C15.5999 18.7418 15.4524 18.6816 15.331 18.5611C15.2095 18.4407 15.1488 18.2944 15.1488 18.1223V5.96332C15.1488 5.774 15.2095 5.61911 15.331 5.49864C15.4524 5.37817 15.5999 5.31793 15.7734 5.31793H17.8815C18.055 5.31793 18.2025 5.37817 18.324 5.49864C18.4628 5.61911 18.5322 5.774 18.5322 5.96332V7.02174C18.9312 6.47101 19.4431 6.04937 20.0677 5.75679C20.7097 5.46422 21.4471 5.31793 22.2799 5.31793H23.347C23.5378 5.31793 23.6853 5.37817 23.7894 5.49864C23.9109 5.61911 23.9716 5.7654 23.9716 5.9375V7.7962C23.9716 7.9683 23.9109 8.11458 23.7894 8.23505C23.6853 8.35553 23.5378 8.41576 23.347 8.41576H21.317C20.4841 8.41576 19.8335 8.6481 19.365 9.11277C18.9139 9.57745 18.6883 10.2142 18.6883 11.0231V18.1223C18.6883 18.2944 18.6276 18.4407 18.5061 18.5611C18.3847 18.6816 18.2285 18.7418 18.0377 18.7418H15.7734Z" fill="#EE6300"/>
<path d="M26.6261 18.7418C26.4526 18.7418 26.3051 18.6816 26.1836 18.5611C26.0622 18.4407 26.0014 18.2944 26.0014 18.1223V5.9375C26.0014 5.7654 26.0622 5.61911 26.1836 5.49864C26.3051 5.37817 26.4526 5.31793 26.6261 5.31793H28.7862C28.9771 5.31793 29.1246 5.37817 29.2287 5.49864C29.3501 5.61911 29.4108 5.7654 29.4108 5.9375V18.1223C29.4108 18.2944 29.3501 18.4407 29.2287 18.5611C29.1246 18.6816 28.9771 18.7418 28.7862 18.7418H26.6261ZM26.522 3.09783C26.3311 3.09783 26.1749 3.0462 26.0535 2.94293C25.9494 2.82246 25.8973 2.66757 25.8973 2.47826V0.619565C25.8973 0.447464 25.9494 0.301177 26.0535 0.180706C26.1749 0.0602353 26.3311 0 26.522 0H28.8903C29.0812 0 29.2373 0.0602353 29.3588 0.180706C29.4802 0.301177 29.541 0.447464 29.541 0.619565V2.47826C29.541 2.66757 29.4802 2.82246 29.3588 2.94293C29.2373 3.0462 29.0812 3.09783 28.8903 3.09783H26.522Z" fill="#EE6300"/>
<path d="M38.926 19C37.5379 19 36.3668 18.7591 35.4125 18.2772C34.4756 17.7953 33.7555 17.1155 33.2523 16.2378C32.7665 15.3601 32.4889 14.3361 32.4195 13.1658C32.4021 12.856 32.3935 12.4774 32.3935 12.0299C32.3935 11.5824 32.4021 11.2038 32.4195 10.894C32.4889 9.70652 32.7752 8.68252 33.2784 7.82201C33.7989 6.94429 34.5276 6.26449 35.4645 5.78261C36.4188 5.30072 37.5726 5.05978 38.926 5.05978C40.2794 5.05978 41.4245 5.30072 42.3614 5.78261C43.3157 6.26449 44.0445 6.94429 44.5476 7.82201C45.0681 8.68252 45.3631 9.70652 45.4325 10.894C45.4499 11.2038 45.4585 11.5824 45.4585 12.0299C45.4585 12.4774 45.4499 12.856 45.4325 13.1658C45.3631 14.3361 45.0768 15.3601 44.5737 16.2378C44.0878 17.1155 43.3678 17.7953 42.4135 18.2772C41.4766 18.7591 40.3141 19 38.926 19ZM38.926 16.4443C39.8456 16.4443 40.557 16.1603 41.0601 15.5924C41.5633 15.0072 41.8409 14.1553 41.893 13.0367C41.9103 12.7785 41.919 12.4429 41.919 12.0299C41.919 11.6168 41.9103 11.2812 41.893 11.0231C41.8409 9.92165 41.5633 9.07835 41.0601 8.49321C40.557 7.90806 39.8456 7.61549 38.926 7.61549C38.0064 7.61549 37.295 7.90806 36.7919 8.49321C36.2887 9.07835 36.0111 9.92165 35.959 11.0231C35.9417 11.2812 35.933 11.6168 35.933 12.0299C35.933 12.4429 35.9417 12.7785 35.959 13.0367C36.0111 14.1553 36.2887 15.0072 36.7919 15.5924C37.295 16.1603 38.0064 16.4443 38.926 16.4443Z" fill="#EE6300"/>
<path d="M49.2791 18.7418C49.1056 18.7418 48.9581 18.6816 48.8366 18.5611C48.7152 18.4407 48.6545 18.2944 48.6545 18.1223V1.31658C48.6545 1.12726 48.7152 0.972373 48.8366 0.851902C48.9581 0.731431 49.1056 0.671195 49.2791 0.671195H56.2541C57.6074 0.671195 58.7873 0.886322 59.7936 1.31658C60.7999 1.72962 61.5807 2.36639 62.1359 3.2269C62.6912 4.0702 62.9688 5.12862 62.9688 6.40217C62.9688 7.69293 62.6912 8.75996 62.1359 9.60326C61.5807 10.4293 60.7999 11.0489 59.7936 11.462C58.7873 11.875 57.6074 12.0815 56.2541 12.0815H52.3762V18.1223C52.3762 18.2944 52.3155 18.4407 52.194 18.5611C52.0899 18.6816 51.9424 18.7418 51.7516 18.7418H49.2791ZM52.3241 9.21603H56.1239C57.1303 9.21603 57.9024 8.9837 58.4402 8.51902C58.9781 8.03714 59.2471 7.33152 59.2471 6.40217C59.2471 5.54167 58.9955 4.85326 58.4923 4.33696C57.9891 3.80344 57.1997 3.53668 56.1239 3.53668H52.3241V9.21603Z" fill="#EE6300"/>
<path d="M66.3005 18.7418C66.127 18.7418 65.9795 18.6816 65.8581 18.5611C65.7366 18.4407 65.6759 18.2944 65.6759 18.1223V5.9375C65.6759 5.7654 65.7366 5.61911 65.8581 5.49864C65.9795 5.37817 66.127 5.31793 66.3005 5.31793H68.4607C68.6515 5.31793 68.799 5.37817 68.9031 5.49864C69.0246 5.61911 69.0853 5.7654 69.0853 5.9375V18.1223C69.0853 18.2944 69.0246 18.4407 68.9031 18.5611C68.799 18.6816 68.6515 18.7418 68.4607 18.7418H66.3005ZM66.1964 3.09783C66.0056 3.09783 65.8494 3.0462 65.7279 2.94293C65.6238 2.82246 65.5718 2.66757 65.5718 2.47826V0.619565C65.5718 0.447464 65.6238 0.301177 65.7279 0.180706C65.8494 0.0602353 66.0056 0 66.1964 0H68.5648C68.7556 0 68.9118 0.0602353 69.0332 0.180706C69.1547 0.301177 69.2154 0.447464 69.2154 0.619565V2.47826C69.2154 2.66757 69.1547 2.82246 69.0332 2.94293C68.9118 3.0462 68.7556 3.09783 68.5648 3.09783H66.1964Z" fill="#EE6300"/>
<path d="M72.7658 18.7418C72.5749 18.7418 72.4187 18.6816 72.2973 18.5611C72.1932 18.4407 72.1411 18.2944 72.1411 18.1223V16.6508C72.1411 16.4959 72.1758 16.3496 72.2452 16.212C72.332 16.0571 72.4187 15.928 72.5055 15.8247L79.1682 8.00272H72.974C72.8005 8.00272 72.653 7.95109 72.5315 7.84783C72.4101 7.72736 72.3493 7.57246 72.3493 7.38315V5.9375C72.3493 5.7654 72.4101 5.61911 72.5315 5.49864C72.653 5.37817 72.8005 5.31793 72.974 5.31793H82.8378C83.0287 5.31793 83.1762 5.37817 83.2803 5.49864C83.4017 5.61911 83.4625 5.7654 83.4625 5.9375V7.51223C83.4625 7.66712 83.4277 7.8048 83.3584 7.92527C83.2889 8.04574 83.2022 8.17482 83.0981 8.3125L76.5916 16.0571H83.3844C83.5579 16.0571 83.7054 16.1173 83.8268 16.2378C83.9483 16.341 84.009 16.4873 84.009 16.6766V18.1223C84.009 18.2944 83.9483 18.4407 83.8268 18.5611C83.7054 18.6816 83.5579 18.7418 83.3844 18.7418H72.7658Z" fill="#EE6300"/>
<path d="M86.5921 18.7418C86.4012 18.7418 86.2451 18.6816 86.1236 18.5611C86.0195 18.4407 85.9675 18.2944 85.9675 18.1223V16.6508C85.9675 16.4959 86.0022 16.3496 86.0716 16.212C86.1583 16.0571 86.2451 15.928 86.3318 15.8247L92.9945 8.00272H86.8003C86.6268 8.00272 86.4793 7.95109 86.3578 7.84783C86.2364 7.72736 86.1757 7.57246 86.1757 7.38315V5.9375C86.1757 5.7654 86.2364 5.61911 86.3578 5.49864C86.4793 5.37817 86.6268 5.31793 86.8003 5.31793H96.6642C96.855 5.31793 97.0025 5.37817 97.1066 5.49864C97.2281 5.61911 97.2888 5.7654 97.2888 5.9375V7.51223C97.2888 7.66712 97.2541 7.8048 97.1847 7.92527C97.1153 8.04574 97.0285 8.17482 96.9244 8.3125L90.4179 16.0571H97.2107C97.3842 16.0571 97.5317 16.1173 97.6532 16.2378C97.7746 16.341 97.8353 16.4873 97.8353 16.6766V18.1223C97.8353 18.2944 97.7746 18.4407 97.6532 18.5611C97.5317 18.6816 97.3842 18.7418 97.2107 18.7418H86.5921Z" fill="#EE6300"/>
<path d="M104.4 19C103.498 19 102.683 18.8279 101.954 18.4837C101.225 18.1223 100.644 17.649 100.21 17.0639C99.7938 16.4615 99.5856 15.7903 99.5856 15.0503C99.5856 13.8456 100.071 12.8904 101.043 12.1848C102.032 11.462 103.333 10.9801 104.947 10.7391L108.513 10.2228V9.68071C108.513 8.95788 108.33 8.39855 107.966 8.00272C107.602 7.60688 106.977 7.40897 106.092 7.40897C105.467 7.40897 104.956 7.53804 104.557 7.7962C104.175 8.03714 103.889 8.36413 103.698 8.77717C103.559 9.00091 103.359 9.11277 103.099 9.11277H101.043C100.852 9.11277 100.705 9.06114 100.601 8.95788C100.514 8.85462 100.47 8.71694 100.47 8.54484C100.488 8.26947 100.601 7.93388 100.809 7.53804C101.017 7.14221 101.347 6.76359 101.798 6.40217C102.249 6.02355 102.83 5.70516 103.542 5.44701C104.253 5.18886 105.112 5.05978 106.118 5.05978C107.211 5.05978 108.131 5.19746 108.877 5.47283C109.64 5.73098 110.248 6.08379 110.699 6.53125C111.15 6.97871 111.479 7.50362 111.688 8.10598C111.896 8.70833 112 9.34511 112 10.0163V18.1223C112 18.2944 111.939 18.4407 111.818 18.5611C111.696 18.6816 111.549 18.7418 111.375 18.7418H109.267C109.076 18.7418 108.92 18.6816 108.799 18.5611C108.695 18.4407 108.643 18.2944 108.643 18.1223V17.1155C108.417 17.4425 108.113 17.7523 107.732 18.0448C107.35 18.3202 106.882 18.5525 106.326 18.7418C105.788 18.9139 105.146 19 104.4 19ZM105.285 16.5476C105.893 16.5476 106.439 16.4185 106.925 16.1603C107.428 15.9022 107.818 15.5063 108.096 14.9728C108.391 14.4221 108.539 13.7337 108.539 12.9076V12.3655L105.936 12.7785C104.912 12.9334 104.149 13.183 103.646 13.5272C103.142 13.8714 102.891 14.293 102.891 14.7921C102.891 15.1707 103.004 15.4977 103.229 15.7731C103.472 16.0313 103.776 16.2292 104.14 16.3668C104.505 16.4873 104.886 16.5476 105.285 16.5476Z" fill="#EE6300"/>
</svg>
