<svg width="19" height="21" viewBox="0 0 19 21" fill="none" xmlns="http://www.w3.org/2000/svg">
<path d="M14.5 5.51367C14.5 2.7793 12.2344 0.513672 9.5 0.513672C6.72656 0.513672 4.5 2.7793 4.5 5.51367H0.75V17.3887C0.75 19.1465 2.11719 20.5137 3.875 20.5137H15.125C16.8438 20.5137 18.25 19.1465 18.25 17.3887V5.51367H14.5ZM9.5 2.38867C11.2188 2.38867 12.625 3.79492 12.625 5.51367H6.375C6.375 3.79492 7.74219 2.38867 9.5 2.38867ZM16.375 17.3887C16.375 18.0918 15.7891 18.6387 15.125 18.6387H3.875C3.17188 18.6387 2.625 18.0918 2.625 17.3887V7.38867H4.5V8.95117C4.5 9.49805 4.89062 9.88867 5.4375 9.88867C5.94531 9.88867 6.375 9.49805 6.375 8.95117V7.38867H12.625V8.95117C12.625 9.49805 13.0156 9.88867 13.5625 9.88867C14.0703 9.88867 14.5 9.49805 14.5 8.95117V7.38867H16.375V17.3887Z" fill="#101010"/>
</svg>
