<svg width="23" height="23" viewBox="0 0 23 23" fill="none" xmlns="http://www.w3.org/2000/svg">
<path fill-rule="evenodd" clip-rule="evenodd" d="M0.707107 21.921C0.316583 21.5304 0.316583 20.8973 0.707107 20.5068L20.5061 0.707771C20.8966 0.317247 21.5298 0.317247 21.9203 0.707771C22.3108 1.0983 22.3108 1.73146 21.9203 2.12198L2.12132 21.921C1.7308 22.3115 1.09763 22.3115 0.707107 21.921Z" fill="#101010"/>
<path fill-rule="evenodd" clip-rule="evenodd" d="M0.707078 0.707107C1.0976 0.316582 1.73077 0.316582 2.12129 0.707107L21.9203 20.5061C22.3108 20.8966 22.3108 21.5298 21.9203 21.9203C21.5298 22.3108 20.8966 22.3108 20.5061 21.9203L0.707078 2.12132C0.316553 1.7308 0.316554 1.09763 0.707078 0.707107Z" fill="#101010"/>
</svg>
