<svg width="414" height="131" viewBox="0 0 414 131" fill="none" xmlns="http://www.w3.org/2000/svg">
<path d="M121.164 77.0615H119.359V100.27H121.164V77.0615Z" fill="#E3D3CB"/>
<path d="M158.579 77.0615H156.774V100.27H158.579V77.0615Z" fill="#E3D3CB"/>
<path d="M160.63 98.0098H117.382V100.834H160.63V98.0098Z" fill="#F0E7E2"/>
<path d="M120.256 100.748H118.451V116.453H120.256V100.748Z" fill="#C7B4AA"/>
<path d="M159.734 100.748H157.929V116.453H159.734V100.748Z" fill="#C7B4AA"/>
<path d="M160.63 78.1055H117.382V91.7601H160.63V78.1055Z" fill="#F0E7E2"/>
<path d="M160.544 100.27H117.444V104.666H160.544V100.27Z" fill="#E3D3CB"/>
<path d="M117.444 94.0186H115.639V116.428H117.444V94.0186Z" fill="#E3D3CB"/>
<path d="M118.144 91.7725H115V94.916H118.144V91.7725Z" fill="#C7B4AB"/>
<path d="M120.587 91.7725H118.131V94.916H120.587V91.7725Z" fill="#E3D3CB"/>
<path d="M160.556 116.43H162.361V94.0199H160.556V116.43Z" fill="#E3D3CB"/>
<path d="M159.856 94.9033H163V91.7598H159.856V94.9033Z" fill="#C7B4AB"/>
<path d="M159.857 91.7725H157.401V94.916H159.857V91.7725Z" fill="#E3D3CB"/>
<path d="M522.08 115.056H-109V130.917H522.08V115.056Z" fill="#F0E7E2"/>
<path d="M66.1933 115.056H64.6913V132.043H66.1933V115.056Z" fill="white"/>
<path d="M207.351 115.056H205.849V132.043H207.351V115.056Z" fill="white"/>
<path d="M367.502 115.056H366V132.043H367.502V115.056Z" fill="white"/>
<path d="M126.872 16.0962C119.863 7.82895 111.081 5.00408 104.637 8.08641C103.711 8.53002 102.664 8.65761 101.658 8.44965C100.652 8.24169 99.7413 7.70965 99.0663 6.935C91.2711 -1.51102 78.6342 -2.51225 73.3921 5.45462C72.7989 6.35657 72.2958 7.31473 71.8903 8.31525C71.2468 9.92576 70.1762 11.3302 68.7937 12.3774C67.8546 13.0746 67.048 13.9344 66.4122 14.9162C64.7109 17.7366 63.9217 21.0134 64.1523 24.2991C64.1916 24.7894 64.09 25.2809 63.8594 25.7154C63.6288 26.15 63.2788 26.5097 62.8507 26.752C61.3912 27.5165 60.1581 28.6509 59.2749 30.0418C55.0269 36.4782 56.9006 47.9923 63.4586 55.7231C69.3014 62.6101 76.8893 64.1906 81.4734 59.8853C81.6599 59.7062 81.9085 59.6061 82.1671 59.6061C82.4257 59.6061 82.6743 59.7062 82.8608 59.8853C86.1649 62.8533 90.0124 62.8747 91.9934 59.6565C92.0694 59.5162 92.1774 59.3957 92.3087 59.305C92.44 59.2142 92.5908 59.1556 92.7489 59.134C92.907 59.1125 93.068 59.1284 93.2188 59.1807C93.3696 59.2329 93.506 59.32 93.6168 59.4348C97.021 62.8461 101.133 63.0106 103.229 59.6565C103.606 59.032 103.895 58.3581 104.087 57.654C104.116 57.5045 104.177 57.3631 104.266 57.2394C104.355 57.1156 104.47 57.0126 104.602 56.9372C104.734 56.8619 104.881 56.816 105.033 56.8027C105.185 56.7894 105.338 56.809 105.481 56.8602C107.705 57.7542 109.887 57.368 111.374 55.6087C111.522 55.426 111.731 55.3028 111.962 55.2621C112.193 55.2213 112.432 55.2657 112.633 55.387C120.264 59.9497 128.309 59.07 132.786 52.2689C138.772 43.1649 136.169 26.9809 126.872 16.0962Z" fill="#D9D9DD"/>
<path opacity="0.6" d="M126.872 16.0962C119.863 7.82895 111.081 5.00408 104.637 8.08641C103.711 8.53002 102.664 8.65761 101.658 8.44965C100.652 8.24169 99.7413 7.70965 99.0663 6.935C91.2711 -1.51102 78.6342 -2.51225 73.3921 5.45462C72.7989 6.35657 72.2958 7.31473 71.8903 8.31525C71.2468 9.92576 70.1762 11.3302 68.7937 12.3774C67.8546 13.0746 67.048 13.9344 66.4122 14.9162C64.7109 17.7366 63.9217 21.0134 64.1523 24.2991C64.1916 24.7894 64.09 25.2809 63.8594 25.7154C63.6288 26.15 63.2788 26.5097 62.8507 26.752C61.3912 27.5165 60.1581 28.6509 59.2749 30.0418C55.0269 36.4782 56.9006 47.9923 63.4586 55.7231C69.3014 62.6101 76.8893 64.1906 81.4734 59.8853C81.6599 59.7062 81.9085 59.6061 82.1671 59.6061C82.4257 59.6061 82.6743 59.7062 82.8608 59.8853C86.1649 62.8533 90.0124 62.8747 91.9934 59.6565C92.0694 59.5162 92.1774 59.3957 92.3087 59.305C92.44 59.2142 92.5908 59.1556 92.7489 59.134C92.907 59.1125 93.068 59.1284 93.2188 59.1807C93.3696 59.2329 93.506 59.32 93.6168 59.4348C97.021 62.8461 101.133 63.0106 103.229 59.6565C103.606 59.032 103.895 58.3581 104.087 57.654C104.116 57.5045 104.177 57.3631 104.266 57.2394C104.355 57.1156 104.47 57.0126 104.602 56.9372C104.734 56.8619 104.881 56.816 105.033 56.8027C105.185 56.7894 105.338 56.809 105.481 56.8602C107.705 57.7542 109.887 57.368 111.374 55.6087C111.522 55.426 111.731 55.3028 111.962 55.2621C112.193 55.2213 112.432 55.2657 112.633 55.387C120.264 59.9497 128.309 59.07 132.786 52.2689C138.772 43.1649 136.169 26.9809 126.872 16.0962Z" fill="#FFF1E6"/>
<path d="M80.2219 63.6546L86.8657 70.1554C86.3365 79.3309 85.9003 100.464 85.9003 100.464L83.5402 115.239L104.359 115.439C104.359 115.439 103.414 102.96 103.414 102.287C103.414 101.615 99.3882 77.7075 99.3882 77.7075L97.9578 64.3197L108.685 60.8655L110.645 54.9011L118.511 50.1953L122.366 43.952L120.879 43.573L116.588 49.3371L111.617 50.4742L113.763 45.1678H111.396L105.481 57.4685L97.8577 59.1134L98.8518 41.8423C92.7586 44.8459 90.8062 39.8398 90.8062 39.8398C90.8062 39.8398 88.2889 63.0896 87.4021 65.7357L83.4759 63.6546L79.1849 56.5602H77.3827L80.2219 63.6546Z" fill="#E3D4CB"/>
<path d="M372.479 47.9342C367.716 42.3166 361.749 40.397 357.37 42.4915C356.74 42.7929 356.029 42.8796 355.346 42.7383C354.662 42.597 354.043 42.2355 353.585 41.7091C348.288 35.9699 339.701 35.2896 336.139 40.7032C335.736 41.3161 335.394 41.9671 335.118 42.647C334.681 43.7414 333.953 44.6957 333.014 45.4073C332.376 45.881 331.828 46.4653 331.396 47.1324C330.24 49.0489 329.703 51.2755 329.86 53.5082C329.887 53.8414 329.818 54.1753 329.661 54.4706C329.504 54.766 329.267 55.0103 328.976 55.175C327.984 55.6945 327.146 56.4653 326.546 57.4104C323.659 61.7841 324.932 69.608 329.389 74.8612C333.359 79.541 338.515 80.615 341.63 77.6895C341.757 77.5678 341.926 77.4998 342.101 77.4998C342.277 77.4998 342.446 77.5678 342.573 77.6895C344.818 79.7063 347.432 79.7208 348.778 77.534C348.83 77.4387 348.904 77.3568 348.993 77.2952C349.082 77.2335 349.184 77.1937 349.292 77.179C349.399 77.1643 349.509 77.1752 349.611 77.2107C349.714 77.2462 349.806 77.3054 349.882 77.3834C352.195 79.7014 354.989 79.8132 356.413 77.534C356.669 77.1097 356.866 76.6517 356.996 76.1733C357.016 76.0717 357.057 75.9756 357.118 75.8915C357.178 75.8075 357.256 75.7374 357.346 75.6862C357.436 75.635 357.536 75.6038 357.639 75.5948C357.742 75.5858 357.846 75.5991 357.944 75.6339C359.455 76.2414 360.937 75.9789 361.948 74.7835C362.048 74.6593 362.19 74.5757 362.347 74.548C362.505 74.5203 362.667 74.5504 362.803 74.6328C367.988 77.7333 373.455 77.1355 376.498 72.514C380.565 66.3278 378.796 55.3305 372.479 47.9342Z" fill="#D9D9DD"/>
<path opacity="0.6" d="M372.479 47.9342C367.716 42.3166 361.749 40.397 357.37 42.4915C356.74 42.7929 356.029 42.8796 355.346 42.7383C354.662 42.597 354.043 42.2355 353.585 41.7091C348.288 35.9699 339.701 35.2896 336.139 40.7032C335.736 41.3161 335.394 41.9671 335.118 42.647C334.681 43.7414 333.953 44.6957 333.014 45.4073C332.376 45.881 331.828 46.4653 331.396 47.1324C330.24 49.0489 329.703 51.2755 329.86 53.5082C329.887 53.8414 329.818 54.1753 329.661 54.4706C329.504 54.766 329.267 55.0103 328.976 55.175C327.984 55.6945 327.146 56.4653 326.546 57.4104C323.659 61.7841 324.932 69.608 329.389 74.8612C333.359 79.541 338.515 80.615 341.63 77.6895C341.757 77.5678 341.926 77.4998 342.101 77.4998C342.277 77.4998 342.446 77.5678 342.573 77.6895C344.818 79.7063 347.432 79.7208 348.778 77.534C348.83 77.4387 348.904 77.3568 348.993 77.2952C349.082 77.2335 349.184 77.1937 349.292 77.179C349.399 77.1643 349.509 77.1752 349.611 77.2107C349.714 77.2462 349.806 77.3054 349.882 77.3834C352.195 79.7014 354.989 79.8132 356.413 77.534C356.669 77.1097 356.866 76.6517 356.996 76.1733C357.016 76.0717 357.057 75.9756 357.118 75.8915C357.178 75.8075 357.256 75.7374 357.346 75.6862C357.436 75.635 357.536 75.6038 357.639 75.5948C357.742 75.5858 357.846 75.5991 357.944 75.6339C359.455 76.2414 360.937 75.9789 361.948 74.7835C362.048 74.6593 362.19 74.5757 362.347 74.548C362.505 74.5203 362.667 74.5504 362.803 74.6328C367.988 77.7333 373.455 77.1355 376.498 72.514C380.565 66.3278 378.796 55.3305 372.479 47.9342Z" fill="#FFF1E6"/>
<path d="M340.78 80.2508L345.294 84.6682C344.934 90.903 344.638 105.263 344.638 105.263L343.034 115.303L357.181 115.439C357.181 115.439 356.539 106.959 356.539 106.502C356.539 106.045 353.803 89.7999 353.803 89.7999L352.831 80.7027L360.121 78.3556L361.452 74.3027L366.798 71.105L369.417 66.8626L368.406 66.6051L365.491 70.5219L362.113 71.2946L363.571 67.6887H361.962L357.944 76.0472L352.763 77.1649L353.439 65.429C349.298 67.4701 347.972 64.0684 347.972 64.0684C347.972 64.0684 346.261 79.8669 345.659 81.6649L342.991 80.2508L340.075 75.4301H338.85L340.78 80.2508Z" fill="#E3D4CB"/>
</svg>
